<svg width="0" height="0"><symbol xmlns="http://www.w3.org/2000/svg" id="check" viewBox="0 0 50 50"><path fill="currentColor" stroke="currentColor" stroke-linecap="round" stroke-linejoin="round" stroke-miterlimit="10" stroke-width="4" d="m8 29.312 13.921 12.036L42 10.652"/></symbol><symbol xmlns="http://www.w3.org/2000/svg" id="google" viewBox="0 0 488 512"><path fill="currentColor" d="M488 261.8C488 403.3 391.1 504 248 504 110.8 504 0 393.2 0 256S110.8 8 248 8c66.8 0 123 24.5 166.3 64.9l-67.5 64.9C258.5 52.6 94.3 116.6 94.3 256c0 86.5 69.1 156.6 153.7 156.6 98.2 0 135-70.4 140.8-106.9H248v-85.3h236.1c2.3 12.7 3.9 24.9 3.9 41.4z"/></symbol></svg>