<svg width="0" height="0"><symbol xmlns="http://www.w3.org/2000/svg" id="close" viewBox="0 0 64 64"><path d="M16 14a2 2 0 0 0-1.414 3.414L29.172 32 14.586 46.586a2 2 0 1 0 2.828 2.828L32 34.828l14.586 14.586a2 2 0 1 0 2.828-2.828L34.828 32l14.586-14.586a2 2 0 1 0-2.828-2.828L32 29.172 17.414 14.586A1.992 1.992 0 0 0 16 14z"/></symbol><symbol xmlns="http://www.w3.org/2000/svg" id="google" viewBox="0 0 488 512"><path fill="currentColor" d="M488 261.8C488 403.3 391.1 504 248 504 110.8 504 0 393.2 0 256S110.8 8 248 8c66.8 0 123 24.5 166.3 64.9l-67.5 64.9C258.5 52.6 94.3 116.6 94.3 256c0 86.5 69.1 156.6 153.7 156.6 98.2 0 135-70.4 140.8-106.9H248v-85.3h236.1c2.3 12.7 3.9 24.9 3.9 41.4z"/></symbol><symbol xmlns="http://www.w3.org/2000/svg" id="pen" viewBox="0 0 256 256"><path d="M201.6 9.5c-2.2.8-5.3 2.4-7 3.6-3.5 2.5-17.5 17.1-34.5 35.9-32 35.2-69 71.9-108.8 107.8l-19 17-4.1 10.5c-6.6 16.9-20.3 58.7-20 61 .2 1.3 1.1 2.3 2.4 2.5 2.1.3 31.6-9.6 55.9-18.8 16.2-6.2 13.8-4.2 40-33.5 31.9-35.6 64.8-68 109-107.1C243.8 63.2 248 57.7 248 45.6c-.1-6.8-3.1-11.5-15.6-23.7-9.1-8.9-12.8-11.9-15.9-12.8-5.3-1.4-10.1-1.3-14.9.4zm11.7 15.9c4.6 1.9 17.3 15.4 18.1 19.3.4 1.7.2 5-.4 7.2-1.2 4.7-5.6 9-42 42.2-39 35.5-50.3 46.7-102.1 100.9l-18.7 19.5-7.8 2.9c-4.4 1.6-8.4 3.1-9.1 3.3-.6.3-1.4-.6-1.8-1.8-1.1-3.2-8.1-10.5-11.6-11.9-3.6-1.5-3.5-2.3 1.2-13.5 2.8-6.7 3.8-7.9 25.1-28 35.1-33.2 70.6-68.9 95.4-96 33.1-36.2 39.2-42.3 43.9-44 5.1-1.8 5.9-1.8 9.8-.1z"/></symbol></svg>